<?xml version="1.0" standalone="no"?>
<!DOCTYPE svg PUBLIC "-//W3C//DTD SVG 20010904//EN"
 "http://www.w3.org/TR/2001/REC-SVG-20010904/DTD/svg10.dtd">
<svg version="1.0" xmlns="http://www.w3.org/2000/svg"
 width="500.000000pt" height="500.000000pt" viewBox="0 0 500.000000 500.000000"
 preserveAspectRatio="xMidYMid meet">

<g transform="translate(0.000000,500.000000) scale(0.100000,-0.100000)"
fill="#000000" stroke="none">
<path d="M2290 2716 c0 -28 31 -87 64 -120 23 -22 64 -45 122 -67 57 -22 100
-45 126 -69 l38 -37 0 29 c0 16 -8 41 -17 55 l-17 26 27 -7 c26 -6 27 -5 27
34 l0 40 -45 0 c-33 0 -47 5 -52 16 -11 28 11 49 56 52 38 3 41 5 41 33 l0 29
-70 0 c-66 0 -71 -2 -80 -25 -7 -19 -17 -25 -40 -25 -20 0 -30 5 -30 15 0 8 9
15 19 15 11 0 23 5 26 10 4 6 -13 10 -45 10 -46 0 -52 -3 -70 -32 l-20 -33 -6
33 c-5 25 -11 32 -30 32 -14 0 -24 -6 -24 -14z"/>
<path d="M2290 2581 c0 -27 30 -79 61 -105 18 -15 58 -39 88 -52 31 -14 73
-39 95 -56 30 -25 40 -28 47 -17 25 40 -14 81 -125 133 -50 23 -108 57 -129
75 -20 18 -37 28 -37 22z"/>
<path d="M2314 2422 c23 -45 61 -87 114 -125 l48 -34 28 19 c35 26 25 38 -68
85 -39 19 -86 46 -104 60 l-34 25 16 -30z"/>
</g>
</svg>
